<svg width="61" height="61" viewBox="0 0 61 61" fill="none" xmlns="http://www.w3.org/2000/svg">
<path fill-rule="evenodd" clip-rule="evenodd" d="M0 30.03C0 42.09 7.16001 52.52 17.45 57.27C18.07 57.56 18.7 57.83 19.34 58.07C22.65 59.34 26.25 60.03 30.01 60.03C33.23 60.03 36.33 59.52 39.25 58.57C40.74 58.09 42.19 57.49 43.57 56.78C42.66 55.62 41.81 54.52 41.06 53.56C41.01 53.49 40.96 53.43 40.91 53.36C39.58 51.66 38.61 50.39 38.3 49.97L35.49 46.23C34.7 45.2 33.93 44.18 33.15 43.16C32.94 42.89 32.74 42.62 32.53 42.34C32.33 42.07 32.12 41.8 31.91 41.52C31.28 40.7 30.66 39.87 30.02 39.03C29.98 39.09 29.94 39.14 29.9 39.2C28.52 41.05 23.95 47.2 19.32 53.44C19.25 53.41 19.18 53.38 19.12 53.34C14.82 51.29 11.17 48.07 8.59 44.08C5.97 40.03 4.44 35.2 4.44 30.01C4.44 15.78 15.92 4.21001 30.04 4.21001C44.16 4.21001 55.65 15.78 55.65 30.01C55.65 36.93 52.93 43.22 48.52 47.86C46.96 45.87 45.28 43.73 43.73 41.75C42.69 40.42 41.71 39.16 40.85 38.07C39.44 36.27 38.41 34.93 38.09 34.49C38.94 33.35 39.81 32.29 40.58 31.17C42.18 28.85 43.27 26.37 43.03 23.5C42.76 20.26 40.38 15.85 33.92 15.62C28.4 15.44 22.88 15.58 17.25 15.58V37C17.25 38.71 17.28 40.43 17.24 42.14C17.24 42.3 17.24 42.45 17.26 42.57H21.64C21.65 42.55 29.4 32.37 30.07 31.45C30.4 31.88 34.05 36.6 38.01 41.74C38.96 42.97 39.92 44.22 40.86 45.44C42.37 47.4 43.83 49.29 45.06 50.89L47.67 54.27C48.92 53.36 50.09 52.36 51.18 51.27C56.64 45.84 60.03 38.31 60.03 30.01C60.03 13.47 46.57 0 30.02 0C13.47 0 0 13.49 0 30.03ZM21.62 20.63C21.62 19.91 21.87 19.73 22.58 19.73C24.6 19.74 26.63 19.74 28.65 19.74C30.39 19.74 32.13 19.74 33.86 19.74C36.8 19.75 39.1 22.62 38.38 25.33C37.85 27.34 36.65 28.99 35.24 30.76C33.4 28.35 31.62 26.01 29.76 23.57C27.08 27.14 24.36 30.6 21.61 34.27C21.56 33.8 21.65 24.88 21.62 20.63ZM24.31 55.19C27.14 51.32 30 47.35 30.29 46.96C30.31 46.98 30.33 47.01 30.36 47.06C30.39 47.1 30.44 47.15 30.48 47.22C30.53 47.29 30.59 47.37 30.66 47.46C30.99 47.88 31.49 48.53 32.12 49.35C32.22 49.48 32.32 49.61 32.42 49.74C32.52 49.87 32.63 50.01 32.74 50.15C32.96 50.43 33.18 50.73 33.43 51.04C33.67 51.35 33.92 51.67 34.17 52C34.43 52.33 34.69 52.68 34.97 53.03C34.99 53.06 35.02 53.09 35.04 53.12C35.41 53.59 36.06 54.35 36.59 54.97C36.55 54.98 36.52 54.99 36.48 55C34.41 55.55 32.24 55.84 30.01 55.84C28.05 55.83 26.14 55.61 24.31 55.19Z" fill="url(#paint0_linear_1072_3238)"/>
<defs>
<linearGradient id="paint0_linear_1072_3238" x1="8.13234" y1="50.9492" x2="50.4774" y2="8.60441" gradientUnits="userSpaceOnUse">
<stop stop-color="#AC802A"/>
<stop offset="0.502" stop-color="#AC802A"/>
<stop offset="1" stop-color="#DCC164"/>
</linearGradient>
</defs>
</svg>
