<svg width="8" height="16" viewBox="0 0 8 16" fill="none" xmlns="http://www.w3.org/2000/svg">
<path d="M5.24143 0.628227C5.09707 0.642663 4.76504 0.717731 4.56005 0.78125C3.62747 1.06709 2.92299 1.77446 2.61694 2.73013C2.45237 3.24694 2.43505 3.42595 2.42061 4.7714L2.40618 6.00713H1.28304H0.159912V7.33526V8.66338H1.28593H2.41195V12.027V15.3906H3.78338H5.15482V12.027V8.66338H6.2895H7.42129L7.58875 7.35547C7.68114 6.63944 7.75621 6.04178 7.75332 6.02734C7.75332 6.01579 7.16722 6.00713 6.45118 6.00713H5.14904L5.16059 4.97351C5.17214 3.99185 5.17503 3.9341 5.23855 3.74066C5.29052 3.57897 5.33671 3.50968 5.45509 3.3913C5.72649 3.1199 6.02676 3.06216 7.21341 3.06216H7.83994V1.88128V0.700408L7.67537 0.683084C7.08926 0.619565 5.6341 0.584918 5.24143 0.628227Z" fill="url(#paint0_linear_111_28)"/>
<defs>
<linearGradient id="paint0_linear_111_28" x1="0.159912" y1="20.1419" x2="10.1067" y2="20.0561" gradientUnits="userSpaceOnUse">
<stop stop-color="#B0852C"/>
<stop offset="1" stop-color="#D8C05B"/>
</linearGradient>
</defs>
</svg>
