<svg width="245" height="67" viewBox="0 0 245 67" fill="none" xmlns="http://www.w3.org/2000/svg">
<path d="M1.95 18.6C2.71667 18.6333 3.7 18.6667 4.9 18.7C6.13333 18.7333 7.35 18.75 8.55 18.75C10.15 18.75 11.6667 18.7333 13.1 18.7C14.5667 18.6667 15.6 18.65 16.2 18.65C19.0333 18.65 21.3833 19.0167 23.25 19.75C25.15 20.4833 26.55 21.5167 27.45 22.85C28.3833 24.15 28.85 25.65 28.85 27.35C28.85 28.3833 28.6333 29.4833 28.2 30.65C27.8 31.7833 27.0833 32.85 26.05 33.85C25.0167 34.8167 23.6167 35.6167 21.85 36.25C20.0833 36.8833 17.8333 37.2 15.1 37.2H10.3V36.2H14.6C16.8333 36.2 18.5333 35.8333 19.7 35.1C20.9 34.3333 21.7 33.3333 22.1 32.1C22.5333 30.8333 22.75 29.4333 22.75 27.9C22.75 25.2667 22.1833 23.2333 21.05 21.8C19.9167 20.3333 17.95 19.6 15.15 19.6C13.7167 19.6 12.7667 19.8833 12.3 20.45C11.8667 21.0167 11.65 22.1667 11.65 23.9V48.7C11.65 49.9 11.75 50.8 11.95 51.4C12.15 52 12.5333 52.4 13.1 52.6C13.6667 52.8 14.5 52.9333 15.6 53V54C14.8 53.9333 13.7833 53.9 12.55 53.9C11.35 53.8667 10.1167 53.85 8.85 53.85C7.45 53.85 6.13333 53.8667 4.9 53.9C3.7 53.9 2.71667 53.9333 1.95 54V53C3.08333 52.9333 3.93333 52.8 4.5 52.6C5.06667 52.4 5.43333 52 5.6 51.4C5.8 50.8 5.9 49.9 5.9 48.7V23.9C5.9 22.6667 5.8 21.7667 5.6 21.2C5.43333 20.6 5.05 20.2 4.45 20C3.88333 19.7667 3.05 19.6333 1.95 19.6V18.6ZM10.4 36.35C12.1 36.4167 13.4667 36.5 14.5 36.6C15.5333 36.6667 16.4 36.7333 17.1 36.8C17.8 36.8667 18.45 36.95 19.05 37.05C21.55 37.3833 23.3667 38.05 24.5 39.05C25.6667 40.05 26.4667 41.5833 26.9 43.65L28.15 48.75C28.45 50.1833 28.7667 51.2 29.1 51.8C29.4667 52.4 30 52.7 30.7 52.7C31.2333 52.6667 31.6667 52.5167 32 52.25C32.3667 51.95 32.75 51.55 33.15 51.05L33.85 51.6C33.0833 52.6333 32.2833 53.4167 31.45 53.95C30.6167 54.45 29.5 54.7 28.1 54.7C26.6667 54.7 25.4333 54.3333 24.4 53.6C23.4 52.8333 22.6833 51.4 22.25 49.3L21.25 44.3C20.95 42.8667 20.6167 41.6333 20.25 40.6C19.8833 39.5333 19.3667 38.7 18.7 38.1C18.0667 37.5 17.1333 37.2 15.9 37.2H10.5L10.4 36.35ZM60.6543 18.6C60.521 19.8667 60.421 21.1 60.3543 22.3C60.321 23.4667 60.3043 24.3667 60.3043 25C60.3043 25.6333 60.321 26.2333 60.3543 26.8C60.3876 27.3667 60.421 27.8333 60.4543 28.2H59.3043C59.071 26.0667 58.7043 24.3833 58.2043 23.15C57.7376 21.9167 57.021 21.05 56.0543 20.55C55.121 20.0167 53.8043 19.75 52.1043 19.75H48.6543C47.5876 19.75 46.771 19.85 46.2043 20.05C45.671 20.2167 45.3043 20.5833 45.1043 21.15C44.9043 21.6833 44.8043 22.5333 44.8043 23.7V48.9C44.8043 50.0333 44.9043 50.8833 45.1043 51.45C45.3043 52.0167 45.671 52.4 46.2043 52.6C46.771 52.7667 47.5876 52.85 48.6543 52.85H51.9043C53.8043 52.85 55.3043 52.55 56.4043 51.95C57.5376 51.35 58.3876 50.3667 58.9543 49C59.5543 47.6333 60.0043 45.7667 60.3043 43.4H61.4543C61.3543 44.3667 61.3043 45.6333 61.3043 47.2C61.3043 47.8667 61.321 48.8333 61.3543 50.1C61.421 51.3667 61.521 52.6667 61.6543 54C59.9543 53.9333 58.0376 53.9 55.9043 53.9C53.771 53.8667 51.871 53.85 50.2043 53.85C49.4376 53.85 48.4543 53.85 47.2543 53.85C46.0543 53.85 44.7543 53.8667 43.3543 53.9C41.9876 53.9 40.5876 53.9167 39.1543 53.95C37.7543 53.95 36.4043 53.9667 35.1043 54V53C36.2376 52.9333 37.0876 52.8 37.6543 52.6C38.221 52.4 38.5876 52 38.7543 51.4C38.9543 50.8 39.0543 49.9 39.0543 48.7V23.9C39.0543 22.6667 38.9543 21.7667 38.7543 21.2C38.5876 20.6 38.2043 20.2 37.6043 20C37.0376 19.7667 36.2043 19.6333 35.1043 19.6V18.6C36.4043 18.6333 37.7543 18.6667 39.1543 18.7C40.5876 18.7 41.9876 18.7167 43.3543 18.75C44.7543 18.75 46.0543 18.75 47.2543 18.75C48.4543 18.75 49.4376 18.75 50.2043 18.75C51.7376 18.75 53.471 18.75 55.4043 18.75C57.371 18.7167 59.121 18.6667 60.6543 18.6ZM52.3543 35.7C52.3543 35.7 52.3543 35.8667 52.3543 36.2C52.3543 36.5333 52.3543 36.7 52.3543 36.7H43.3043C43.3043 36.7 43.3043 36.5333 43.3043 36.2C43.3043 35.8667 43.3043 35.7 43.3043 35.7H52.3543ZM53.8043 29.1C53.671 31 53.6043 32.45 53.6043 33.45C53.6376 34.45 53.6543 35.3667 53.6543 36.2C53.6543 37.0333 53.671 37.95 53.7043 38.95C53.7376 39.95 53.821 41.4 53.9543 43.3H52.8043C52.6376 42.2 52.421 41.15 52.1543 40.15C51.8876 39.1167 51.4043 38.2833 50.7043 37.65C50.0376 37.0167 48.9876 36.7 47.5543 36.7V35.7C48.621 35.7 49.4543 35.4833 50.0543 35.05C50.6876 34.6167 51.171 34.05 51.5043 33.35C51.8376 32.65 52.071 31.9333 52.2043 31.2C52.371 30.4333 52.521 29.7333 52.6543 29.1H53.8043ZM77.2637 18C79.0303 18 80.3803 18.2 81.3137 18.6C82.247 19 83.0637 19.4333 83.7637 19.9C84.1637 20.1333 84.4803 20.3167 84.7137 20.45C84.9803 20.55 85.2303 20.6 85.4637 20.6C85.797 20.6 86.0303 20.4167 86.1637 20.05C86.3303 19.6833 86.4637 19.1333 86.5637 18.4H87.7137C87.6803 19 87.6303 19.7167 87.5637 20.55C87.5303 21.35 87.497 22.4167 87.4637 23.75C87.4637 25.0833 87.4637 26.8333 87.4637 29H86.3137C86.2137 27.3667 85.847 25.7833 85.2137 24.25C84.6137 22.7167 83.7137 21.4667 82.5137 20.5C81.347 19.5333 79.847 19.05 78.0137 19.05C76.3137 19.05 74.897 19.5667 73.7637 20.6C72.6637 21.6 72.1137 22.9333 72.1137 24.6C72.1137 26.0667 72.4803 27.3 73.2137 28.3C73.947 29.2667 74.947 30.1833 76.2137 31.05C77.5137 31.8833 78.9803 32.8167 80.6137 33.85C82.2803 34.9167 83.7803 35.9833 85.1137 37.05C86.447 38.0833 87.497 39.2333 88.2637 40.5C89.0303 41.7667 89.4137 43.3 89.4137 45.1C89.4137 47.2667 88.897 49.0667 87.8637 50.5C86.8637 51.9 85.5137 52.95 83.8137 53.65C82.1137 54.35 80.247 54.7 78.2137 54.7C76.347 54.7 74.8637 54.5 73.7637 54.1C72.6637 53.7 71.7303 53.2833 70.9637 52.85C70.2303 52.3833 69.6637 52.15 69.2637 52.15C68.9303 52.15 68.6803 52.3333 68.5137 52.7C68.3803 53.0667 68.2637 53.6167 68.1637 54.35H67.0137C67.0803 53.6167 67.1137 52.7667 67.1137 51.8C67.147 50.8 67.1637 49.5 67.1637 47.9C67.197 46.3 67.2137 44.2833 67.2137 41.85H68.3637C68.497 43.9167 68.8637 45.85 69.4637 47.65C70.097 49.45 71.047 50.9 72.3137 52C73.6137 53.0667 75.3303 53.6 77.4637 53.6C78.597 53.6 79.647 53.3833 80.6137 52.95C81.5803 52.5167 82.3637 51.8333 82.9637 50.9C83.5637 49.9667 83.8637 48.7667 83.8637 47.3C83.8637 45.9333 83.5303 44.7333 82.8637 43.7C82.2303 42.6667 81.3303 41.7167 80.1637 40.85C79.0303 39.95 77.697 39.0333 76.1637 38.1C74.597 37.1 73.1303 36.1 71.7637 35.1C70.397 34.1 69.297 32.9333 68.4637 31.6C67.6637 30.2667 67.2637 28.6833 67.2637 26.85C67.2637 24.8167 67.7303 23.15 68.6637 21.85C69.6303 20.55 70.8637 19.5833 72.3637 18.95C73.897 18.3167 75.5303 18 77.2637 18ZM107.348 18.6V19.6C106.248 19.6333 105.415 19.7667 104.848 20C104.281 20.2 103.898 20.6 103.698 21.2C103.498 21.7667 103.398 22.6667 103.398 23.9V48.7C103.398 49.9 103.498 50.8 103.698 51.4C103.898 52 104.281 52.4 104.848 52.6C105.415 52.8 106.248 52.9333 107.348 53V54C106.548 53.9333 105.531 53.9 104.298 53.9C103.098 53.8667 101.865 53.85 100.598 53.85C99.198 53.85 97.8814 53.8667 96.648 53.9C95.448 53.9 94.4647 53.9333 93.698 54V53C94.8314 52.9333 95.6814 52.8 96.248 52.6C96.8147 52.4 97.1814 52 97.348 51.4C97.548 50.8 97.648 49.9 97.648 48.7V23.9C97.648 22.6667 97.548 21.7667 97.348 21.2C97.1814 20.6 96.798 20.2 96.198 20C95.6314 19.7667 94.798 19.6333 93.698 19.6V18.6C94.4647 18.6333 95.448 18.6667 96.648 18.7C97.8814 18.7333 99.198 18.75 100.598 18.75C101.865 18.75 103.098 18.7333 104.298 18.7C105.531 18.6667 106.548 18.6333 107.348 18.6ZM125.477 18.6C131.644 18.6 136.227 20.1 139.227 23.1C142.227 26.0667 143.727 30.3333 143.727 35.9C143.727 39.5333 142.994 42.7167 141.527 45.45C140.061 48.15 137.927 50.25 135.127 51.75C132.361 53.25 128.994 54 125.027 54C124.527 54 123.844 53.9833 122.977 53.95C122.144 53.9167 121.277 53.9 120.377 53.9C119.477 53.8667 118.661 53.85 117.927 53.85C116.661 53.85 115.411 53.8667 114.177 53.9C112.977 53.9 111.994 53.9333 111.227 54V53C112.361 52.9333 113.211 52.8 113.777 52.6C114.344 52.4 114.711 52 114.877 51.4C115.077 50.8 115.177 49.9 115.177 48.7V23.9C115.177 22.6667 115.077 21.7667 114.877 21.2C114.711 20.6 114.327 20.2 113.727 20C113.161 19.7667 112.327 19.6333 111.227 19.6V18.6C111.994 18.6333 112.977 18.6833 114.177 18.75C115.411 18.7833 116.627 18.7833 117.827 18.75C119.027 18.7167 120.361 18.6833 121.827 18.65C123.327 18.6167 124.544 18.6 125.477 18.6ZM124.627 19.5C123.094 19.5 122.094 19.7833 121.627 20.35C121.161 20.9167 120.927 22.0667 120.927 23.8V48.8C120.927 50.5333 121.161 51.6833 121.627 52.25C122.127 52.8167 123.144 53.1 124.677 53.1C128.044 53.1 130.661 52.45 132.527 51.15C134.394 49.8167 135.711 47.8833 136.477 45.35C137.244 42.8167 137.627 39.7333 137.627 36.1C137.627 32.3667 137.211 29.2833 136.377 26.85C135.544 24.3833 134.177 22.55 132.277 21.35C130.411 20.1167 127.861 19.5 124.627 19.5ZM173.398 18.6C173.265 19.8667 173.165 21.1 173.098 22.3C173.065 23.4667 173.048 24.3667 173.048 25C173.048 25.6333 173.065 26.2333 173.098 26.8C173.132 27.3667 173.165 27.8333 173.198 28.2H172.048C171.815 26.0667 171.448 24.3833 170.948 23.15C170.482 21.9167 169.765 21.05 168.798 20.55C167.865 20.0167 166.548 19.75 164.848 19.75H161.398C160.332 19.75 159.515 19.85 158.948 20.05C158.415 20.2167 158.048 20.5833 157.848 21.15C157.648 21.6833 157.548 22.5333 157.548 23.7V48.9C157.548 50.0333 157.648 50.8833 157.848 51.45C158.048 52.0167 158.415 52.4 158.948 52.6C159.515 52.7667 160.332 52.85 161.398 52.85H164.648C166.548 52.85 168.048 52.55 169.148 51.95C170.282 51.35 171.132 50.3667 171.698 49C172.298 47.6333 172.748 45.7667 173.048 43.4H174.198C174.098 44.3667 174.048 45.6333 174.048 47.2C174.048 47.8667 174.065 48.8333 174.098 50.1C174.165 51.3667 174.265 52.6667 174.398 54C172.698 53.9333 170.782 53.9 168.648 53.9C166.515 53.8667 164.615 53.85 162.948 53.85C162.182 53.85 161.198 53.85 159.998 53.85C158.798 53.85 157.498 53.8667 156.098 53.9C154.732 53.9 153.332 53.9167 151.898 53.95C150.498 53.95 149.148 53.9667 147.848 54V53C148.982 52.9333 149.832 52.8 150.398 52.6C150.965 52.4 151.332 52 151.498 51.4C151.698 50.8 151.798 49.9 151.798 48.7V23.9C151.798 22.6667 151.698 21.7667 151.498 21.2C151.332 20.6 150.948 20.2 150.348 20C149.782 19.7667 148.948 19.6333 147.848 19.6V18.6C149.148 18.6333 150.498 18.6667 151.898 18.7C153.332 18.7 154.732 18.7167 156.098 18.75C157.498 18.75 158.798 18.75 159.998 18.75C161.198 18.75 162.182 18.75 162.948 18.75C164.482 18.75 166.215 18.75 168.148 18.75C170.115 18.7167 171.865 18.6667 173.398 18.6ZM165.098 35.7C165.098 35.7 165.098 35.8667 165.098 36.2C165.098 36.5333 165.098 36.7 165.098 36.7H156.048C156.048 36.7 156.048 36.5333 156.048 36.2C156.048 35.8667 156.048 35.7 156.048 35.7H165.098ZM166.548 29.1C166.415 31 166.348 32.45 166.348 33.45C166.382 34.45 166.398 35.3667 166.398 36.2C166.398 37.0333 166.415 37.95 166.448 38.95C166.482 39.95 166.565 41.4 166.698 43.3H165.548C165.382 42.2 165.165 41.15 164.898 40.15C164.632 39.1167 164.148 38.2833 163.448 37.65C162.782 37.0167 161.732 36.7 160.298 36.7V35.7C161.365 35.7 162.198 35.4833 162.798 35.05C163.432 34.6167 163.915 34.05 164.248 33.35C164.582 32.65 164.815 31.9333 164.948 31.2C165.115 30.4333 165.265 29.7333 165.398 29.1H166.548ZM210.658 18.6V19.6C209.524 19.6667 208.674 19.8667 208.108 20.2C207.541 20.5333 207.158 21.0833 206.958 21.85C206.791 22.5833 206.708 23.6333 206.708 25V54.2C206.441 54.2 206.174 54.2 205.908 54.2C205.641 54.2 205.358 54.2 205.058 54.2L183.858 23.4V47.4C183.858 48.8 183.958 49.9 184.158 50.7C184.358 51.4667 184.791 52.0167 185.458 52.35C186.124 52.6833 187.141 52.9 188.508 53V54C187.874 53.9333 187.058 53.9 186.058 53.9C185.091 53.8667 184.174 53.85 183.308 53.85C182.474 53.85 181.641 53.8667 180.808 53.9C179.974 53.9 179.291 53.9333 178.758 54V53C179.858 52.9 180.691 52.7 181.258 52.4C181.824 52.0667 182.208 51.5167 182.408 50.75C182.608 49.9833 182.708 48.9333 182.708 47.6V23.9C182.708 22.6667 182.608 21.7667 182.408 21.2C182.208 20.6 181.824 20.2 181.258 20C180.691 19.7667 179.858 19.6333 178.758 19.6V18.6C179.291 18.6333 179.974 18.6667 180.808 18.7C181.641 18.7333 182.474 18.75 183.308 18.75C184.041 18.75 184.758 18.7333 185.458 18.7C186.158 18.6667 186.774 18.6333 187.308 18.6L205.558 44.7V25.2C205.558 23.7667 205.441 22.6667 205.208 21.9C205.008 21.1333 204.574 20.5833 203.908 20.25C203.241 19.8833 202.241 19.6667 200.908 19.6V18.6C201.508 18.6333 202.308 18.6667 203.308 18.7C204.308 18.7333 205.241 18.75 206.108 18.75C206.941 18.75 207.774 18.7333 208.608 18.7C209.441 18.6667 210.124 18.6333 210.658 18.6ZM242.755 18.6C242.621 20 242.521 21.3667 242.455 22.7C242.421 24 242.405 25 242.405 25.7C242.405 26.4667 242.421 27.2 242.455 27.9C242.488 28.6 242.521 29.2 242.555 29.7H241.405C241.071 27.2 240.621 25.2333 240.055 23.8C239.521 22.3667 238.738 21.3333 237.705 20.7C236.671 20.0667 235.188 19.75 233.255 19.75H231.105V48.25C231.105 49.5833 231.221 50.5833 231.455 51.25C231.721 51.9167 232.221 52.3667 232.955 52.6C233.721 52.8 234.821 52.9333 236.255 53V54C235.321 53.9333 234.121 53.9 232.655 53.9C231.188 53.8667 229.688 53.85 228.155 53.85C226.555 53.85 225.038 53.8667 223.605 53.9C222.205 53.9 221.071 53.9333 220.205 54V53C221.638 52.9333 222.721 52.8 223.455 52.6C224.188 52.3667 224.688 51.9167 224.955 51.25C225.221 50.5833 225.355 49.5833 225.355 48.25V19.75H223.155C221.288 19.75 219.821 20.0667 218.755 20.7C217.688 21.3333 216.888 22.3667 216.355 23.8C215.821 25.2333 215.388 27.2 215.055 29.7H213.905C213.971 29.2 214.005 28.6 214.005 27.9C214.038 27.2 214.055 26.4667 214.055 25.7C214.055 25 214.021 24 213.955 22.7C213.921 21.3667 213.838 20 213.705 18.6C215.138 18.6333 216.705 18.6667 218.405 18.7C220.105 18.7333 221.821 18.75 223.555 18.75C225.288 18.75 226.855 18.75 228.255 18.75C229.655 18.75 231.205 18.75 232.905 18.75C234.605 18.75 236.321 18.7333 238.055 18.7C239.788 18.6667 241.355 18.6333 242.755 18.6Z" fill="#131212"/>
</svg>
