<svg width="194" height="30" viewBox="0 0 194 30" fill="none" xmlns="http://www.w3.org/2000/svg">
<path d="M0.56 0.68C1.17333 0.706666 1.96 0.733332 2.92 0.759999C3.90667 0.786665 4.88 0.799998 5.84 0.799998C7.12 0.799998 8.33333 0.786665 9.48 0.759999C10.6533 0.733332 11.48 0.719999 11.96 0.719999C14.2267 0.719999 16.1067 1.01333 17.6 1.6C19.12 2.18666 20.24 3.01333 20.96 4.08C21.7067 5.12 22.08 6.32 22.08 7.68C22.08 8.50667 21.9067 9.38667 21.56 10.32C21.24 11.2267 20.6667 12.08 19.84 12.88C19.0133 13.6533 17.8933 14.2933 16.48 14.8C15.0667 15.3067 13.2667 15.56 11.08 15.56H7.24V14.76H10.68C12.4667 14.76 13.8267 14.4667 14.76 13.88C15.72 13.2667 16.36 12.4667 16.68 11.48C17.0267 10.4667 17.2 9.34667 17.2 8.12C17.2 6.01333 16.7467 4.38667 15.84 3.24C14.9333 2.06667 13.36 1.48 11.12 1.48C9.97333 1.48 9.21333 1.70667 8.84 2.16C8.49333 2.61333 8.32 3.53333 8.32 4.92V24.76C8.32 25.72 8.4 26.44 8.56 26.92C8.72 27.4 9.02667 27.72 9.48 27.88C9.93333 28.04 10.6 28.1467 11.48 28.2V29C10.84 28.9467 10.0267 28.92 9.04 28.92C8.08 28.8933 7.09333 28.88 6.08 28.88C4.96 28.88 3.90667 28.8933 2.92 28.92C1.96 28.92 1.17333 28.9467 0.56 29V28.2C1.46667 28.1467 2.14667 28.04 2.6 27.88C3.05333 27.72 3.34667 27.4 3.48 26.92C3.64 26.44 3.72 25.72 3.72 24.76V4.92C3.72 3.93333 3.64 3.21333 3.48 2.76C3.34667 2.28 3.04 1.96 2.56 1.8C2.10667 1.61333 1.44 1.50667 0.56 1.48V0.68ZM7.32 14.88C8.68 14.9333 9.77333 15 10.6 15.08C11.4267 15.1333 12.12 15.1867 12.68 15.24C13.24 15.2933 13.76 15.36 14.24 15.44C16.24 15.7067 17.6933 16.24 18.6 17.04C19.5333 17.84 20.1733 19.0667 20.52 20.72L21.52 24.8C21.76 25.9467 22.0133 26.76 22.28 27.24C22.5733 27.72 23 27.96 23.56 27.96C23.9867 27.9333 24.3333 27.8133 24.6 27.6C24.8933 27.36 25.2 27.04 25.52 26.64L26.08 27.08C25.4667 27.9067 24.8267 28.5333 24.16 28.96C23.4933 29.36 22.6 29.56 21.48 29.56C20.3333 29.56 19.3467 29.2667 18.52 28.68C17.72 28.0667 17.1467 26.92 16.8 25.24L16 21.24C15.76 20.0933 15.4933 19.1067 15.2 18.28C14.9067 17.4267 14.4933 16.76 13.96 16.28C13.4533 15.8 12.7067 15.56 11.72 15.56H7.4L7.32 14.88ZM47.5234 0.68C47.4168 1.69333 47.3368 2.68 47.2834 3.64C47.2568 4.57333 47.2434 5.29333 47.2434 5.8C47.2434 6.30666 47.2568 6.78666 47.2834 7.24C47.3101 7.69333 47.3368 8.06667 47.3634 8.36H46.4434C46.2568 6.65333 45.9634 5.30666 45.5634 4.32C45.1901 3.33333 44.6168 2.64 43.8434 2.24C43.0968 1.81333 42.0434 1.6 40.6834 1.6H37.9234C37.0701 1.6 36.4168 1.68 35.9634 1.84C35.5368 1.97333 35.2434 2.26667 35.0834 2.72C34.9234 3.14667 34.8434 3.82667 34.8434 4.76V24.92C34.8434 25.8267 34.9234 26.5067 35.0834 26.96C35.2434 27.4133 35.5368 27.72 35.9634 27.88C36.4168 28.0133 37.0701 28.08 37.9234 28.08H40.5234C42.0434 28.08 43.2434 27.84 44.1234 27.36C45.0301 26.88 45.7101 26.0933 46.1634 25C46.6434 23.9067 47.0034 22.4133 47.2434 20.52H48.1634C48.0834 21.2933 48.0434 22.3067 48.0434 23.56C48.0434 24.0933 48.0568 24.8667 48.0834 25.88C48.1368 26.8933 48.2168 27.9333 48.3234 29C46.9634 28.9467 45.4301 28.92 43.7234 28.92C42.0168 28.8933 40.4968 28.88 39.1634 28.88C38.5501 28.88 37.7634 28.88 36.8034 28.88C35.8434 28.88 34.8034 28.8933 33.6834 28.92C32.5901 28.92 31.4701 28.9333 30.3234 28.96C29.2034 28.96 28.1234 28.9733 27.0834 29V28.2C27.9901 28.1467 28.6701 28.04 29.1234 27.88C29.5768 27.72 29.8701 27.4 30.0034 26.92C30.1634 26.44 30.2434 25.72 30.2434 24.76V4.92C30.2434 3.93333 30.1634 3.21333 30.0034 2.76C29.8701 2.28 29.5634 1.96 29.0834 1.8C28.6301 1.61333 27.9634 1.50667 27.0834 1.48V0.68C28.1234 0.706666 29.2034 0.733332 30.3234 0.759999C31.4701 0.759999 32.5901 0.773332 33.6834 0.799998C34.8034 0.799998 35.8434 0.799998 36.8034 0.799998C37.7634 0.799998 38.5501 0.799998 39.1634 0.799998C40.3901 0.799998 41.7768 0.799998 43.3234 0.799998C44.8968 0.773332 46.2968 0.733332 47.5234 0.68ZM40.8834 14.36C40.8834 14.36 40.8834 14.4933 40.8834 14.76C40.8834 15.0267 40.8834 15.16 40.8834 15.16H33.6434C33.6434 15.16 33.6434 15.0267 33.6434 14.76C33.6434 14.4933 33.6434 14.36 33.6434 14.36H40.8834ZM42.0434 9.08C41.9368 10.6 41.8834 11.76 41.8834 12.56C41.9101 13.36 41.9234 14.0933 41.9234 14.76C41.9234 15.4267 41.9368 16.16 41.9634 16.96C41.9901 17.76 42.0568 18.92 42.1634 20.44H41.2434C41.1101 19.56 40.9368 18.72 40.7234 17.92C40.5101 17.0933 40.1234 16.4267 39.5634 15.92C39.0301 15.4133 38.1901 15.16 37.0434 15.16V14.36C37.8968 14.36 38.5634 14.1867 39.0434 13.84C39.5501 13.4933 39.9368 13.04 40.2034 12.48C40.4701 11.92 40.6568 11.3467 40.7634 10.76C40.8968 10.1467 41.0168 9.58667 41.1234 9.08H42.0434ZM60.8109 0.199999C62.2243 0.199999 63.3043 0.359999 64.0509 0.68C64.7976 0.999999 65.4509 1.34667 66.0109 1.72C66.3309 1.90667 66.5843 2.05333 66.7709 2.16C66.9843 2.24 67.1843 2.28 67.3709 2.28C67.6376 2.28 67.8243 2.13333 67.9309 1.84C68.0643 1.54666 68.1709 1.10666 68.2509 0.52H69.1709C69.1443 1 69.1043 1.57333 69.0509 2.24C69.0243 2.88 68.9976 3.73333 68.9709 4.8C68.9709 5.86667 68.9709 7.26667 68.9709 9H68.0509C67.9709 7.69333 67.6776 6.42667 67.1709 5.2C66.6909 3.97333 65.9709 2.97333 65.0109 2.2C64.0776 1.42666 62.8776 1.04 61.4109 1.04C60.0509 1.04 58.9176 1.45333 58.0109 2.28C57.1309 3.08 56.6909 4.14667 56.6909 5.48C56.6909 6.65333 56.9843 7.64 57.5709 8.44C58.1576 9.21333 58.9576 9.94667 59.9709 10.64C61.0109 11.3067 62.1843 12.0533 63.4909 12.88C64.8243 13.7333 66.0243 14.5867 67.0909 15.44C68.1576 16.2667 68.9976 17.1867 69.6109 18.2C70.2243 19.2133 70.5309 20.44 70.5309 21.88C70.5309 23.6133 70.1176 25.0533 69.2909 26.2C68.4909 27.32 67.4109 28.16 66.0509 28.72C64.6909 29.28 63.1976 29.56 61.5709 29.56C60.0776 29.56 58.8909 29.4 58.0109 29.08C57.1309 28.76 56.3843 28.4267 55.7709 28.08C55.1843 27.7067 54.7309 27.52 54.4109 27.52C54.1443 27.52 53.9443 27.6667 53.8109 27.96C53.7043 28.2533 53.6109 28.6933 53.5309 29.28H52.6109C52.6643 28.6933 52.6909 28.0133 52.6909 27.24C52.7176 26.44 52.7309 25.4 52.7309 24.12C52.7576 22.84 52.7709 21.2267 52.7709 19.28H53.6909C53.7976 20.9333 54.0909 22.48 54.5709 23.92C55.0776 25.36 55.8376 26.52 56.8509 27.4C57.8909 28.2533 59.2643 28.68 60.9709 28.68C61.8776 28.68 62.7176 28.5067 63.4909 28.16C64.2643 27.8133 64.8909 27.2667 65.3709 26.52C65.8509 25.7733 66.0909 24.8133 66.0909 23.64C66.0909 22.5467 65.8243 21.5867 65.2909 20.76C64.7843 19.9333 64.0643 19.1733 63.1309 18.48C62.2243 17.76 61.1576 17.0267 59.9309 16.28C58.6776 15.48 57.5043 14.68 56.4109 13.88C55.3176 13.08 54.4376 12.1467 53.7709 11.08C53.1309 10.0133 52.8109 8.74667 52.8109 7.28C52.8109 5.65333 53.1843 4.32 53.9309 3.28C54.7043 2.24 55.6909 1.46667 56.8909 0.959999C58.1176 0.453332 59.4243 0.199999 60.8109 0.199999ZM84.8784 0.68V1.48C83.9984 1.50667 83.3318 1.61333 82.8784 1.8C82.4251 1.96 82.1184 2.28 81.9584 2.76C81.7984 3.21333 81.7184 3.93333 81.7184 4.92V24.76C81.7184 25.72 81.7984 26.44 81.9584 26.92C82.1184 27.4 82.4251 27.72 82.8784 27.88C83.3318 28.04 83.9984 28.1467 84.8784 28.2V29C84.2384 28.9467 83.4251 28.92 82.4384 28.92C81.4784 28.8933 80.4918 28.88 79.4784 28.88C78.3584 28.88 77.3051 28.8933 76.3184 28.92C75.3584 28.92 74.5718 28.9467 73.9584 29V28.2C74.8651 28.1467 75.5451 28.04 75.9984 27.88C76.4518 27.72 76.7451 27.4 76.8784 26.92C77.0384 26.44 77.1184 25.72 77.1184 24.76V4.92C77.1184 3.93333 77.0384 3.21333 76.8784 2.76C76.7451 2.28 76.4384 1.96 75.9584 1.8C75.5051 1.61333 74.8384 1.50667 73.9584 1.48V0.68C74.5718 0.706666 75.3584 0.733332 76.3184 0.759999C77.3051 0.786665 78.3584 0.799998 79.4784 0.799998C80.4918 0.799998 81.4784 0.786665 82.4384 0.759999C83.4251 0.733332 84.2384 0.706666 84.8784 0.68ZM99.3819 0.68C104.315 0.68 107.982 1.88 110.382 4.28C112.782 6.65333 113.982 10.0667 113.982 14.52C113.982 17.4267 113.395 19.9733 112.222 22.16C111.049 24.32 109.342 26 107.102 27.2C104.889 28.4 102.195 29 99.0219 29C98.6219 29 98.0752 28.9867 97.3819 28.96C96.7152 28.9333 96.0219 28.92 95.3019 28.92C94.5819 28.8933 93.9285 28.88 93.3419 28.88C92.3285 28.88 91.3285 28.8933 90.3419 28.92C89.3819 28.92 88.5952 28.9467 87.9819 29V28.2C88.8885 28.1467 89.5685 28.04 90.0219 27.88C90.4752 27.72 90.7685 27.4 90.9019 26.92C91.0619 26.44 91.1419 25.72 91.1419 24.76V4.92C91.1419 3.93333 91.0619 3.21333 90.9019 2.76C90.7685 2.28 90.4619 1.96 89.9819 1.8C89.5285 1.61333 88.8619 1.50667 87.9819 1.48V0.68C88.5952 0.706666 89.3819 0.746666 90.3419 0.799998C91.3285 0.826665 92.3019 0.826665 93.2619 0.799998C94.2219 0.773332 95.2885 0.746666 96.4619 0.719999C97.6619 0.693333 98.6352 0.68 99.3819 0.68ZM98.7019 1.4C97.4752 1.4 96.6752 1.62666 96.3019 2.08C95.9285 2.53333 95.7419 3.45333 95.7419 4.84V24.84C95.7419 26.2267 95.9285 27.1467 96.3019 27.6C96.7019 28.0533 97.5152 28.28 98.7419 28.28C101.435 28.28 103.529 27.76 105.022 26.72C106.515 25.6533 107.569 24.1067 108.182 22.08C108.795 20.0533 109.102 17.5867 109.102 14.68C109.102 11.6933 108.769 9.22667 108.102 7.28C107.435 5.30666 106.342 3.84 104.822 2.88C103.329 1.89333 101.289 1.4 98.7019 1.4ZM137.719 0.68C137.612 1.69333 137.532 2.68 137.479 3.64C137.452 4.57333 137.439 5.29333 137.439 5.8C137.439 6.30666 137.452 6.78666 137.479 7.24C137.505 7.69333 137.532 8.06667 137.559 8.36H136.639C136.452 6.65333 136.159 5.30666 135.759 4.32C135.385 3.33333 134.812 2.64 134.039 2.24C133.292 1.81333 132.239 1.6 130.879 1.6H128.119C127.265 1.6 126.612 1.68 126.159 1.84C125.732 1.97333 125.439 2.26667 125.279 2.72C125.119 3.14667 125.039 3.82667 125.039 4.76V24.92C125.039 25.8267 125.119 26.5067 125.279 26.96C125.439 27.4133 125.732 27.72 126.159 27.88C126.612 28.0133 127.265 28.08 128.119 28.08H130.719C132.239 28.08 133.439 27.84 134.319 27.36C135.225 26.88 135.905 26.0933 136.359 25C136.839 23.9067 137.199 22.4133 137.439 20.52H138.359C138.279 21.2933 138.239 22.3067 138.239 23.56C138.239 24.0933 138.252 24.8667 138.279 25.88C138.332 26.8933 138.412 27.9333 138.519 29C137.159 28.9467 135.625 28.92 133.919 28.92C132.212 28.8933 130.692 28.88 129.359 28.88C128.745 28.88 127.959 28.88 126.999 28.88C126.039 28.88 124.999 28.8933 123.879 28.92C122.785 28.92 121.665 28.9333 120.519 28.96C119.399 28.96 118.319 28.9733 117.279 29V28.2C118.185 28.1467 118.865 28.04 119.319 27.88C119.772 27.72 120.065 27.4 120.199 26.92C120.359 26.44 120.439 25.72 120.439 24.76V4.92C120.439 3.93333 120.359 3.21333 120.199 2.76C120.065 2.28 119.759 1.96 119.279 1.8C118.825 1.61333 118.159 1.50667 117.279 1.48V0.68C118.319 0.706666 119.399 0.733332 120.519 0.759999C121.665 0.759999 122.785 0.773332 123.879 0.799998C124.999 0.799998 126.039 0.799998 126.999 0.799998C127.959 0.799998 128.745 0.799998 129.359 0.799998C130.585 0.799998 131.972 0.799998 133.519 0.799998C135.092 0.773332 136.492 0.733332 137.719 0.68ZM131.079 14.36C131.079 14.36 131.079 14.4933 131.079 14.76C131.079 15.0267 131.079 15.16 131.079 15.16H123.839C123.839 15.16 123.839 15.0267 123.839 14.76C123.839 14.4933 123.839 14.36 123.839 14.36H131.079ZM132.239 9.08C132.132 10.6 132.079 11.76 132.079 12.56C132.105 13.36 132.119 14.0933 132.119 14.76C132.119 15.4267 132.132 16.16 132.159 16.96C132.185 17.76 132.252 18.92 132.359 20.44H131.439C131.305 19.56 131.132 18.72 130.919 17.92C130.705 17.0933 130.319 16.4267 129.759 15.92C129.225 15.4133 128.385 15.16 127.239 15.16V14.36C128.092 14.36 128.759 14.1867 129.239 13.84C129.745 13.4933 130.132 13.04 130.399 12.48C130.665 11.92 130.852 11.3467 130.959 10.76C131.092 10.1467 131.212 9.58667 131.319 9.08H132.239ZM167.526 0.68V1.48C166.62 1.53333 165.94 1.69333 165.486 1.96C165.033 2.22667 164.726 2.66667 164.566 3.28C164.433 3.86667 164.366 4.70666 164.366 5.8V29.16C164.153 29.16 163.94 29.16 163.726 29.16C163.513 29.16 163.286 29.16 163.046 29.16L146.086 4.52V23.72C146.086 24.84 146.166 25.72 146.326 26.36C146.486 26.9733 146.833 27.4133 147.366 27.68C147.9 27.9467 148.713 28.12 149.806 28.2V29C149.3 28.9467 148.646 28.92 147.846 28.92C147.073 28.8933 146.34 28.88 145.646 28.88C144.98 28.88 144.313 28.8933 143.646 28.92C142.98 28.92 142.433 28.9467 142.006 29V28.2C142.886 28.12 143.553 27.96 144.006 27.72C144.46 27.4533 144.766 27.0133 144.926 26.4C145.086 25.7867 145.166 24.9467 145.166 23.88V4.92C145.166 3.93333 145.086 3.21333 144.926 2.76C144.766 2.28 144.46 1.96 144.006 1.8C143.553 1.61333 142.886 1.50667 142.006 1.48V0.68C142.433 0.706666 142.98 0.733332 143.646 0.759999C144.313 0.786665 144.98 0.799998 145.646 0.799998C146.233 0.799998 146.806 0.786665 147.366 0.759999C147.926 0.733332 148.42 0.706666 148.846 0.68L163.446 21.56V5.96C163.446 4.81333 163.353 3.93333 163.166 3.32C163.006 2.70667 162.66 2.26667 162.126 2C161.593 1.70667 160.793 1.53333 159.726 1.48V0.68C160.206 0.706666 160.846 0.733332 161.646 0.759999C162.446 0.786665 163.193 0.799998 163.886 0.799998C164.553 0.799998 165.22 0.786665 165.886 0.759999C166.553 0.733332 167.1 0.706666 167.526 0.68ZM193.204 0.68C193.097 1.8 193.017 2.89333 192.964 3.96C192.937 5 192.924 5.8 192.924 6.36C192.924 6.97333 192.937 7.56 192.964 8.12C192.99 8.68 193.017 9.16 193.044 9.56H192.124C191.857 7.56 191.497 5.98666 191.044 4.84C190.617 3.69333 189.99 2.86667 189.164 2.36C188.337 1.85333 187.15 1.6 185.604 1.6H183.884V24.4C183.884 25.4667 183.977 26.2667 184.164 26.8C184.377 27.3333 184.777 27.6933 185.364 27.88C185.977 28.04 186.857 28.1467 188.004 28.2V29C187.257 28.9467 186.297 28.92 185.124 28.92C183.95 28.8933 182.75 28.88 181.524 28.88C180.244 28.88 179.03 28.8933 177.884 28.92C176.764 28.92 175.857 28.9467 175.164 29V28.2C176.31 28.1467 177.177 28.04 177.764 27.88C178.35 27.6933 178.75 27.3333 178.964 26.8C179.177 26.2667 179.284 25.4667 179.284 24.4V1.6H177.524C176.03 1.6 174.857 1.85333 174.004 2.36C173.15 2.86667 172.51 3.69333 172.084 4.84C171.657 5.98666 171.31 7.56 171.044 9.56H170.124C170.177 9.16 170.204 8.68 170.204 8.12C170.23 7.56 170.244 6.97333 170.244 6.36C170.244 5.8 170.217 5 170.164 3.96C170.137 2.89333 170.07 1.8 169.964 0.68C171.11 0.706666 172.364 0.733332 173.724 0.759999C175.084 0.786665 176.457 0.799998 177.844 0.799998C179.23 0.799998 180.484 0.799998 181.604 0.799998C182.724 0.799998 183.964 0.799998 185.324 0.799998C186.684 0.799998 188.057 0.786665 189.444 0.759999C190.83 0.733332 192.084 0.706666 193.204 0.68Z" fill="white"/>
</svg>
