<svg width="40" height="40" viewBox="0 0 40 40" fill="none" xmlns="http://www.w3.org/2000/svg">
<path d="M19.7449 16.584L19.7832 17.2155L19.1449 17.1382C16.8216 16.8417 14.7919 15.8365 13.0686 14.1483L12.226 13.3106L12.009 13.9292C11.5495 15.3081 11.8431 16.7644 12.8005 17.7439C13.3111 18.2851 13.1962 18.3625 12.3154 18.0403C12.009 17.9372 11.7409 17.8599 11.7154 17.8985C11.6261 17.9887 11.9324 19.1615 12.175 19.6254C12.5069 20.2698 13.1834 20.9013 13.9238 21.275L14.5493 21.5715L13.8089 21.5843C13.0941 21.5843 13.0686 21.5972 13.1451 21.8679C13.4005 22.7056 14.4089 23.5948 15.5323 23.9814L16.3237 24.2521L15.6344 24.6645C14.6132 25.2573 13.4132 25.5924 12.2133 25.6181C11.6388 25.631 11.1665 25.6826 11.1665 25.7212C11.1665 25.8501 12.7239 26.5718 13.6302 26.8553C16.3493 27.693 19.5789 27.3322 22.0043 25.9017C23.7277 24.8835 25.451 22.8602 26.2552 20.9013C26.6892 19.8574 27.1233 17.9501 27.1233 17.0351C27.1233 16.4422 27.1616 16.3649 27.8764 15.6561C28.2977 15.2437 28.6934 14.7926 28.77 14.6638C28.8977 14.4189 28.8849 14.4189 28.2339 14.638C27.1488 15.0246 26.9956 14.9731 27.5318 14.3931C27.9275 13.9807 28.3998 13.2333 28.3998 13.0142C28.3998 12.9755 28.2083 13.0399 27.9913 13.1559C27.7615 13.2848 27.2509 13.4781 26.868 13.5941L26.1786 13.8132L25.5531 13.3879C25.2085 13.1559 24.7234 12.8982 24.4681 12.8209C23.817 12.6404 22.8213 12.6662 22.2341 12.8724C20.6384 13.4523 19.63 14.9473 19.7449 16.584Z" fill="url(#paint0_linear_49_354)"/>
<defs>
<linearGradient id="paint0_linear_49_354" x1="11.1665" y1="8.00737" x2="34.0404" y2="8.46676" gradientUnits="userSpaceOnUse">
<stop stop-color="#B0852C"/>
<stop offset="1" stop-color="#D8C05B"/>
</linearGradient>
</defs>
</svg>
