<svg width="40" height="40" viewBox="0 0 40 40" fill="none" xmlns="http://www.w3.org/2000/svg">
<g clip-path="url(#clip0_49_357)">
<path fill-rule="evenodd" clip-rule="evenodd" d="M17.0221 24.1635C17.3191 24.3202 17.6499 24.402 17.9857 24.4019C19.1043 24.4019 20.0175 23.5121 20.0587 22.4031L20.0628 12.5H22.5336C22.5338 12.7103 22.5534 12.9202 22.592 13.127H20.7829V13.1273H22.592H23.254C23.2537 13.9561 23.5541 14.7569 24.0995 15.381C24.0997 15.3813 24.1 15.3815 24.1002 15.3818C24.6566 15.7452 25.3069 15.9385 25.9715 15.9379V16.4882C26.2041 16.538 26.4446 16.5645 26.6919 16.5645V19.036C25.4583 19.0374 24.2556 18.6507 23.254 17.9305V22.9521C23.254 25.4597 21.2137 27.5 18.7058 27.5C18.0813 27.5002 17.4634 27.3713 16.891 27.1215C16.319 26.872 15.8046 26.507 15.3802 26.0495C15.3799 26.0493 15.3795 26.0491 15.3792 26.0489C14.2064 25.2254 13.4375 23.8635 13.4375 22.3251C13.4375 19.8172 15.4778 17.7766 17.9857 17.7766C18.1908 17.7775 18.3956 17.7925 18.5986 17.8212V18.4063C18.5986 18.4063 18.5986 18.4063 18.5986 18.4063L18.5986 20.3439C18.5986 20.3439 18.5986 20.3439 18.5986 20.3439L18.5986 18.4063C18.6129 18.406 18.6271 18.4055 18.6413 18.405C18.6627 18.4043 18.6841 18.4035 18.7058 18.4035C18.9109 18.4045 19.1157 18.4194 19.3187 18.4482V20.9709C19.1249 20.9101 18.9198 20.8747 18.7058 20.8747C18.1551 20.8753 17.6271 21.0944 17.2377 21.4839C16.8483 21.8733 16.6293 22.4014 16.6287 22.9521C16.6287 23.3871 16.7662 23.811 17.0215 24.1632C17.0217 24.1633 17.0219 24.1634 17.0221 24.1635ZM19.6741 24.7889C20.3102 24.4515 20.7505 23.7924 20.7791 23.0298V23.0301C20.7505 23.7925 20.3102 24.4515 19.6741 24.7889ZM17.9859 20.2477C18.1131 20.2477 18.2372 20.2601 18.3578 20.2831C18.2353 20.26 18.1109 20.2481 17.9859 20.2477ZM16.5177 20.8568C16.5177 20.8568 16.5177 20.8568 16.5177 20.8568V20.8568ZM14.4576 24.5749C14.6687 25.1249 14.9837 25.6238 15.3782 26.0478C14.9757 25.617 14.6648 25.1159 14.4576 24.5749ZM17.9857 26.873C17.9857 26.873 17.9857 26.873 17.9857 26.873V26.873ZM22.5336 22.3248V17.3031C22.5336 17.3031 22.5336 17.3032 22.5336 17.3031V22.3248Z" fill="url(#paint0_linear_49_357)"/>
</g>
<defs>
<linearGradient id="paint0_linear_49_357" x1="13.4375" y1="7.67857" x2="30.6015" y2="7.93029" gradientUnits="userSpaceOnUse">
<stop stop-color="#B0852C"/>
<stop offset="1" stop-color="#D8C05B"/>
</linearGradient>
<clipPath id="clip0_49_357">
<rect width="15" height="15" fill="white" transform="translate(12.5 12.5)"/>
</clipPath>
</defs>
</svg>
